<?xml version="1.0" standalone="no"?>
<!DOCTYPE svg PUBLIC "-//W3C//DTD SVG 20010904//EN"
 "http://www.w3.org/TR/2001/REC-SVG-20010904/DTD/svg10.dtd">
<svg version="1.0" xmlns="http://www.w3.org/2000/svg"
 width="347.000000pt" height="212.000000pt" viewBox="0 0 347.000000 212.000000"
 preserveAspectRatio="xMidYMid meet">

<g transform="translate(0.000000,212.000000) scale(0.100000,-0.100000)"
fill="#000000" stroke="none">
<path d="M2621 2095 c-127 -23 -259 -75 -326 -129 -19 -16 6 -7 70 25 152 75
229 92 415 93 136 1 164 -2 230 -22 132 -42 235 -104 353 -212 95 -88 83 -53
-15 44 -182 178 -447 252 -727 201z"/>
<path d="M502 2059 c-179 -26 -382 -157 -467 -303 -41 -71 -25 -64 33 14 124
166 290 256 525 284 105 13 108 14 42 14 -38 0 -98 -5 -133 -9z"/>
<path d="M748 2053 c12 -2 30 -2 40 0 9 3 -1 5 -23 4 -22 0 -30 -2 -17 -4z"/>
<path d="M828 2043 c6 -2 18 -2 25 0 6 3 1 5 -13 5 -14 0 -19 -2 -12 -5z"/>
<path d="M622 1271 c-247 -63 -442 -265 -487 -504 -17 -89 -20 -183 -6 -191 5
-4 11 0 14 6 2 7 23 -26 45 -74 42 -90 59 -113 40 -55 -15 47 -11 233 7 299
54 206 218 372 420 423 127 32 259 12 394 -61 97 -53 122 -49 78 13 -24 34
-25 38 -10 44 22 8 -53 53 -146 87 -92 34 -246 39 -349 13z"/>
<path d="M2483 1270 c-121 -32 -198 -78 -187 -112 3 -12 -1 -27 -11 -38 -16
-18 -14 -56 3 -48 216 108 267 123 392 115 159 -10 293 -71 409 -188 115 -114
172 -236 194 -411 l13 -101 19 44 c25 55 24 130 -5 263 -26 119 -48 171 -105
251 -76 107 -206 189 -358 225 -108 26 -265 26 -364 0z"/>
<path d="M2583 1093 c-24 -9 -13 -20 42 -48 76 -37 90 -65 90 -180 -1 -110
-25 -168 -80 -191 -114 -47 -204 25 -213 171 -4 55 0 67 37 137 22 43 36 80
31 83 -28 17 -114 -75 -165 -175 -53 -104 -70 -186 -69 -330 0 -251 72 -401
228 -481 l61 -31 -65 7 c-36 3 -76 8 -90 11 -47 10 2 -13 65 -30 83 -23 254
-31 345 -17 80 12 233 51 227 57 -2 2 -37 -2 -78 -10 -41 -8 -110 -17 -154
-20 l-80 -7 58 25 c77 32 120 67 162 129 82 121 127 387 95 558 -23 122 -114
251 -209 299 -68 34 -201 58 -238 43z m323 -721 c-10 -110 -88 -187 -200 -199
-145 -15 -256 72 -256 200 0 31 4 57 10 57 6 0 10 -8 10 -17 0 -62 90 -176
148 -189 15 -3 33 -8 41 -10 22 -7 94 16 126 41 34 25 80 104 88 150 3 17 9
48 13 70 l7 40 9 -45 c5 -25 7 -69 4 -98z"/>
<path d="M706 1082 c-45 -11 -42 -28 8 -41 55 -14 90 -53 106 -121 42 -175
-82 -313 -214 -237 -85 48 -109 182 -51 284 28 49 30 73 5 58 -25 -15 -91
-131 -110 -192 -62 -202 -39 -440 59 -590 46 -72 98 -118 171 -152 76 -36 200
-37 277 -2 151 68 220 241 211 531 -6 159 -26 238 -83 320 -36 53 -107 110
-159 128 -47 16 -176 24 -220 14z m323 -698 c3 -173 -190 -285 -341 -197 -41
24 -86 87 -94 133 l-7 35 37 -42 c43 -49 126 -93 175 -93 51 0 119 37 151 82
30 41 43 75 56 143 6 37 8 38 14 15 5 -14 8 -48 9 -76z"/>
<path d="M940 58 c-41 -5 -147 -7 -235 -5 -154 4 -158 4 -105 -10 84 -22 287
-19 380 5 83 22 73 24 -40 10z"/>
</g>
</svg>
